# MagicaVoxel @ Ephtracy

# material
mtllib character.mtl
usemtl palette

# normals
vn -1 0 0
vn 1 0 0
vn 0 0 1
vn 0 0 -1
vn 0 -1 0
vn 0 1 0

# texcoords
vt 0.00585938 0.5
vt 0.0136719 0.5
vt 0.404297 0.5
vt 0.537109 0.5
vt 0.962891 0.5
vt 0.974609 0.5
vt 0.986328 0.5
vt 0.990234 0.5
vt 0.994141 0.5

# verts
v -2.5 1 -0.5
v -2.5 1 -1.5
v -2.5 2 0.5
v -2.5 2 -0.5
v -2.5 3 0.5
v -2.5 3 -0.5
v -2.5 5 0.5
v -2.5 5 -0.5
v -2.5 5 -1.5
v -2.5 6 0.5
v -2.5 6 -0.5
v -2.5 6 -1.5
v -2.5 7 0.5
v -2.5 7 -0.5
v -2.5 8 1.5
v -2.5 8 0.5
v -2.5 9 1.5
v -2.5 9 -1.5
v -2.5 9 -2.5
v -2.5 10 -1.5
v -2.5 10 -2.5
v -1.5 0 0.5
v -1.5 0 -0.5
v -1.5 1 0.5
v -1.5 1 -0.5
v -1.5 2 1.5
v -1.5 2 0.5
v -1.5 2 -0.5
v -1.5 3 1.5
v -1.5 3 0.5
v -1.5 5 1.5
v -1.5 5 0.5
v -1.5 6 1.5
v -1.5 6 0.5
v -1.5 7 1.5
v -1.5 7 0.5
v -1.5 7 -1.5
v -1.5 7 -2.5
v -1.5 8 2.5
v -1.5 8 1.5
v -1.5 8 0.5
v -1.5 9 2.5
v -1.5 9 1.5
v -1.5 9 -1.5
v -1.5 9 -2.5
v -1.5 10 1.5
v -1.5 10 -0.5
v -1.5 10 -1.5
v -1.5 11 -0.5
v -1.5 11 -1.5
v -0.5 5 0.5
v -0.5 5 -0.5
v -0.5 6 0.5
v -0.5 6 -0.5
v -0.5 6 -1.5
v -0.5 6 -2.5
v -0.5 7 -1.5
v -0.5 7 -2.5
v 0.5 0 0.5
v 0.5 0 -0.5
v 0.5 1 0.5
v 0.5 1 -0.5
v 0.5 2 0.5
v 0.5 2 -0.5
v 1.5 5 -0.5
v 1.5 5 -1.5
v 1.5 6 -0.5
v 1.5 6 -1.5
v -1.5 5 -0.5
v -1.5 5 -1.5
v -1.5 6 -0.5
v -1.5 6 -1.5
v -1.5 9 -1.5
v -1.5 9 -2.5
v -1.5 10 -1.5
v -1.5 10 -2.5
v -0.5 0 0.5
v -0.5 0 -0.5
v -0.5 1 0.5
v -0.5 1 -0.5
v -0.5 2 0.5
v -0.5 2 -0.5
v -0.5 10 -0.5
v -0.5 10 -1.5
v -0.5 11 -0.5
v -0.5 11 -1.5
v 0.5 5 0.5
v 0.5 5 -0.5
v 0.5 6 0.5
v 0.5 6 -0.5
v 0.5 6 -1.5
v 0.5 6 -2.5
v 0.5 7 -1.5
v 0.5 7 -2.5
v 1.5 0 0.5
v 1.5 0 -0.5
v 1.5 1 0.5
v 1.5 1 -0.5
v 1.5 2 1.5
v 1.5 2 0.5
v 1.5 2 -0.5
v 1.5 3 1.5
v 1.5 3 0.5
v 1.5 5 1.5
v 1.5 5 0.5
v 1.5 6 1.5
v 1.5 6 0.5
v 1.5 7 1.5
v 1.5 7 0.5
v 1.5 7 -1.5
v 1.5 7 -2.5
v 1.5 8 2.5
v 1.5 8 1.5
v 1.5 8 0.5
v 1.5 9 2.5
v 1.5 9 1.5
v 1.5 9 -1.5
v 1.5 9 -2.5
v 1.5 10 1.5
v 1.5 10 -1.5
v 2.5 1 -0.5
v 2.5 1 -1.5
v 2.5 2 0.5
v 2.5 2 -0.5
v 2.5 3 0.5
v 2.5 3 -0.5
v 2.5 5 0.5
v 2.5 5 -0.5
v 2.5 5 -1.5
v 2.5 6 0.5
v 2.5 6 -0.5
v 2.5 6 -1.5
v 2.5 7 0.5
v 2.5 7 -0.5
v 2.5 8 1.5
v 2.5 8 0.5
v 2.5 9 1.5
v 2.5 9 -1.5
v -1.5 8 2.5
v -1.5 9 2.5
v 1.5 8 2.5
v 1.5 9 2.5
v -2.5 8 1.5
v -2.5 9 1.5
v -1.5 2 1.5
v -1.5 3 1.5
v -1.5 5 1.5
v -1.5 6 1.5
v -1.5 7 1.5
v -1.5 8 1.5
v -1.5 9 1.5
v -1.5 10 1.5
v -0.5 7 1.5
v -0.5 8 1.5
v 0.5 7 1.5
v 0.5 8 1.5
v 1.5 2 1.5
v 1.5 3 1.5
v 1.5 5 1.5
v 1.5 6 1.5
v 1.5 7 1.5
v 1.5 8 1.5
v 1.5 9 1.5
v 1.5 10 1.5
v 2.5 8 1.5
v 2.5 9 1.5
v -2.5 2 0.5
v -2.5 3 0.5
v -2.5 5 0.5
v -2.5 6 0.5
v -2.5 7 0.5
v -2.5 8 0.5
v -1.5 0 0.5
v -1.5 1 0.5
v -1.5 2 0.5
v -1.5 3 0.5
v -1.5 5 0.5
v -1.5 6 0.5
v -1.5 7 0.5
v -1.5 8 0.5
v -0.5 0 0.5
v -0.5 1 0.5
v -0.5 2 0.5
v -0.5 5 0.5
v -0.5 6 0.5
v 0.5 0 0.5
v 0.5 1 0.5
v 0.5 2 0.5
v 0.5 5 0.5
v 0.5 6 0.5
v 1.5 0 0.5
v 1.5 1 0.5
v 1.5 2 0.5
v 1.5 3 0.5
v 1.5 5 0.5
v 1.5 6 0.5
v 1.5 7 0.5
v 1.5 8 0.5
v 2.5 2 0.5
v 2.5 3 0.5
v 2.5 5 0.5
v 2.5 6 0.5
v 2.5 7 0.5
v 2.5 8 0.5
v -2.5 1 -0.5
v -2.5 2 -0.5
v -2.5 5 -0.5
v -2.5 6 -0.5
v -1.5 1 -0.5
v -1.5 2 -0.5
v -1.5 5 -0.5
v -1.5 6 -0.5
v -1.5 10 -0.5
v -1.5 11 -0.5
v -0.5 1 -0.5
v -0.5 2 -0.5
v -0.5 10 -0.5
v -0.5 11 -0.5
v 0.5 1 -0.5
v 0.5 2 -0.5
v 1.5 1 -0.5
v 1.5 2 -0.5
v 1.5 5 -0.5
v 1.5 6 -0.5
v 2.5 1 -0.5
v 2.5 2 -0.5
v 2.5 5 -0.5
v 2.5 6 -0.5
v -2.5 9 -1.5
v -2.5 10 -1.5
v -1.5 9 -1.5
v -1.5 10 -1.5
v -1.5 0 -0.5
v -1.5 1 -0.5
v -0.5 0 -0.5
v -0.5 1 -0.5
v -0.5 5 -0.5
v -0.5 6 -0.5
v 0.5 0 -0.5
v 0.5 1 -0.5
v 0.5 5 -0.5
v 0.5 6 -0.5
v 1.5 0 -0.5
v 1.5 1 -0.5
v -2.5 1 -1.5
v -2.5 5 -1.5
v -2.5 6 -1.5
v -2.5 9 -1.5
v -1.5 1 -1.5
v -1.5 2 -1.5
v -1.5 5 -1.5
v -1.5 6 -1.5
v -1.5 7 -1.5
v -1.5 9 -1.5
v -1.5 10 -1.5
v -1.5 11 -1.5
v -0.5 1 -1.5
v -0.5 2 -1.5
v -0.5 6 -1.5
v -0.5 7 -1.5
v -0.5 10 -1.5
v -0.5 11 -1.5
v 0.5 1 -1.5
v 0.5 2 -1.5
v 0.5 6 -1.5
v 0.5 7 -1.5
v 1.5 1 -1.5
v 1.5 2 -1.5
v 1.5 5 -1.5
v 1.5 6 -1.5
v 1.5 7 -1.5
v 1.5 9 -1.5
v 1.5 10 -1.5
v 2.5 1 -1.5
v 2.5 5 -1.5
v 2.5 6 -1.5
v 2.5 9 -1.5
v -2.5 9 -2.5
v -2.5 10 -2.5
v -1.5 7 -2.5
v -1.5 9 -2.5
v -1.5 10 -2.5
v -0.5 6 -2.5
v -0.5 7 -2.5
v 0.5 6 -2.5
v 0.5 7 -2.5
v 1.5 7 -2.5
v 1.5 9 -2.5
v -1.5 0 0.5
v -0.5 0 0.5
v 0.5 0 0.5
v 1.5 0 0.5
v -1.5 0 -0.5
v -0.5 0 -0.5
v 0.5 0 -0.5
v 1.5 0 -0.5
v -2.5 1 -0.5
v -1.5 1 -0.5
v -0.5 1 -0.5
v 0.5 1 -0.5
v 1.5 1 -0.5
v 2.5 1 -0.5
v -2.5 1 -1.5
v -1.5 1 -1.5
v -0.5 1 -1.5
v 0.5 1 -1.5
v 1.5 1 -1.5
v 2.5 1 -1.5
v -1.5 2 1.5
v 1.5 2 1.5
v -2.5 2 0.5
v -1.5 2 0.5
v -0.5 2 0.5
v 0.5 2 0.5
v 1.5 2 0.5
v 2.5 2 0.5
v -2.5 2 -0.5
v -1.5 2 -0.5
v -0.5 2 -0.5
v 0.5 2 -0.5
v 1.5 2 -0.5
v 2.5 2 -0.5
v -1.5 6 1.5
v 1.5 6 1.5
v -2.5 6 0.5
v -1.5 6 0.5
v -0.5 6 0.5
v 0.5 6 0.5
v 1.5 6 0.5
v 2.5 6 0.5
v -2.5 6 -0.5
v -1.5 6 -0.5
v -0.5 6 -0.5
v 0.5 6 -0.5
v 1.5 6 -0.5
v 2.5 6 -0.5
v -1.5 6 -1.5
v -0.5 6 -1.5
v 0.5 6 -1.5
v 1.5 6 -1.5
v -0.5 6 -2.5
v 0.5 6 -2.5
v -1.5 7 -1.5
v -0.5 7 -1.5
v 0.5 7 -1.5
v 1.5 7 -1.5
v -1.5 7 -2.5
v -0.5 7 -2.5
v 0.5 7 -2.5
v 1.5 7 -2.5
v -1.5 8 2.5
v 1.5 8 2.5
v -2.5 8 1.5
v -1.5 8 1.5
v -0.5 8 1.5
v 0.5 8 1.5
v 1.5 8 1.5
v 2.5 8 1.5
v -2.5 8 0.5
v -1.5 8 0.5
v 1.5 8 0.5
v 2.5 8 0.5
v -2.5 9 -1.5
v -1.5 9 -1.5
v -2.5 9 -2.5
v -1.5 9 -2.5
v -1.5 5 1.5
v 1.5 5 1.5
v -2.5 5 0.5
v -1.5 5 0.5
v -0.5 5 0.5
v 0.5 5 0.5
v 1.5 5 0.5
v 2.5 5 0.5
v -2.5 5 -0.5
v -1.5 5 -0.5
v -0.5 5 -0.5
v 0.5 5 -0.5
v 1.5 5 -0.5
v 2.5 5 -0.5
v -1.5 5 -1.5
v 1.5 5 -1.5
v -1.5 9 2.5
v 1.5 9 2.5
v -2.5 9 1.5
v -1.5 9 1.5
v 1.5 9 1.5
v 2.5 9 1.5
v -2.5 9 -1.5
v -1.5 9 -1.5
v 1.5 9 -1.5
v 2.5 9 -1.5
v -1.5 9 -2.5
v 1.5 9 -2.5
v -1.5 10 1.5
v 1.5 10 1.5
v -1.5 10 -0.5
v -0.5 10 -0.5
v -2.5 10 -1.5
v -1.5 10 -1.5
v -0.5 10 -1.5
v 1.5 10 -1.5
v -2.5 10 -2.5
v -1.5 10 -2.5
v -1.5 11 -0.5
v -0.5 11 -0.5
v -1.5 11 -1.5
v -0.5 11 -1.5

# faces
f 4/3/1 2/3/1 1/3/1
f 5/1/1 4/1/1 3/1/1
f 6/3/1 2/3/1 4/3/1
f 6/1/1 4/1/1 5/1/1
f 7/6/1 6/6/1 5/6/1
f 8/3/1 2/3/1 6/3/1
f 8/6/1 6/6/1 7/6/1
f 9/3/1 2/3/1 8/3/1
f 11/2/1 9/2/1 8/2/1
f 12/2/1 9/2/1 11/2/1
f 13/1/1 11/1/1 10/1/1
f 14/4/1 12/4/1 11/4/1
f 14/1/1 11/1/1 13/1/1
f 16/4/1 14/4/1 13/4/1
f 17/4/1 16/4/1 15/4/1
f 18/4/1 12/4/1 14/4/1
f 18/4/1 16/4/1 17/4/1
f 18/4/1 14/4/1 16/4/1
f 20/4/1 19/4/1 18/4/1
f 21/4/1 19/4/1 20/4/1
f 24/9/1 23/9/1 22/9/1
f 25/9/1 23/9/1 24/9/1
f 27/7/1 25/7/1 24/7/1
f 28/7/1 25/7/1 27/7/1
f 29/7/1 27/7/1 26/7/1
f 30/7/1 27/7/1 29/7/1
f 31/6/1 30/6/1 29/6/1
f 32/6/1 30/6/1 31/6/1
f 35/1/1 34/1/1 33/1/1
f 36/1/1 34/1/1 35/1/1
f 40/8/1 36/8/1 35/8/1
f 41/8/1 36/8/1 40/8/1
f 42/4/1 40/4/1 39/4/1
f 43/4/1 40/4/1 42/4/1
f 44/4/1 38/4/1 37/4/1
f 45/4/1 38/4/1 44/4/1
f 46/4/1 44/4/1 43/4/1
f 47/4/1 44/4/1 46/4/1
f 48/4/1 44/4/1 47/4/1
f 49/4/1 48/4/1 47/4/1
f 50/4/1 48/4/1 49/4/1
f 53/1/1 52/1/1 51/1/1
f 54/1/1 52/1/1 53/1/1
f 57/4/1 56/4/1 55/4/1
f 58/4/1 56/4/1 57/4/1
f 61/9/1 60/9/1 59/9/1
f 62/9/1 60/9/1 61/9/1
f 63/7/1 62/7/1 61/7/1
f 64/7/1 62/7/1 63/7/1
f 67/2/1 66/2/1 65/2/1
f 68/2/1 66/2/1 67/2/1
f 69/2/2 70/2/2 71/2/2
f 71/2/2 70/2/2 72/2/2
f 73/4/2 74/4/2 75/4/2
f 75/4/2 74/4/2 76/4/2
f 77/9/2 78/9/2 79/9/2
f 79/9/2 78/9/2 80/9/2
f 79/7/2 80/7/2 81/7/2
f 81/7/2 80/7/2 82/7/2
f 83/4/2 84/4/2 85/4/2
f 85/4/2 84/4/2 86/4/2
f 87/1/2 88/1/2 89/1/2
f 89/1/2 88/1/2 90/1/2
f 91/4/2 92/4/2 93/4/2
f 93/4/2 92/4/2 94/4/2
f 95/9/2 96/9/2 97/9/2
f 97/9/2 96/9/2 98/9/2
f 97/7/2 98/7/2 100/7/2
f 100/7/2 98/7/2 101/7/2
f 99/7/2 100/7/2 102/7/2
f 102/7/2 100/7/2 103/7/2
f 102/6/2 103/6/2 104/6/2
f 104/6/2 103/6/2 105/6/2
f 106/1/2 107/1/2 108/1/2
f 108/1/2 107/1/2 109/1/2
f 108/8/2 109/8/2 113/8/2
f 113/8/2 109/8/2 114/8/2
f 112/4/2 113/4/2 115/4/2
f 115/4/2 113/4/2 116/4/2
f 110/4/2 111/4/2 117/4/2
f 117/4/2 111/4/2 118/4/2
f 116/4/2 117/4/2 119/4/2
f 119/4/2 117/4/2 120/4/2
f 121/3/2 122/3/2 124/3/2
f 123/1/2 124/1/2 125/1/2
f 124/3/2 122/3/2 126/3/2
f 125/1/2 124/1/2 126/1/2
f 125/6/2 126/6/2 127/6/2
f 126/3/2 122/3/2 128/3/2
f 127/6/2 126/6/2 128/6/2
f 128/3/2 122/3/2 129/3/2
f 128/2/2 129/2/2 131/2/2
f 131/2/2 129/2/2 132/2/2
f 130/1/2 131/1/2 133/1/2
f 131/4/2 132/4/2 134/4/2
f 133/1/2 131/1/2 134/1/2
f 133/4/2 134/4/2 136/4/2
f 135/4/2 136/4/2 137/4/2
f 134/4/2 132/4/2 138/4/2
f 137/4/2 136/4/2 138/4/2
f 136/4/2 134/4/2 138/4/2
f 141/4/3 140/4/3 139/4/3
f 142/4/3 140/4/3 141/4/3
f 150/4/3 144/4/3 143/4/3
f 151/4/3 144/4/3 150/4/3
f 153/1/3 149/1/3 148/1/3
f 153/8/3 150/8/3 149/8/3
f 154/8/3 150/8/3 153/8/3
f 155/1/3 153/1/3 148/1/3
f 155/1/3 154/1/3 153/1/3
f 156/1/3 154/1/3 155/1/3
f 157/7/3 146/7/3 145/7/3
f 158/6/3 147/6/3 146/6/3
f 158/7/3 146/7/3 157/7/3
f 159/6/3 147/6/3 158/6/3
f 160/1/3 155/1/3 148/1/3
f 161/8/3 156/8/3 155/8/3
f 161/1/3 155/1/3 160/1/3
f 162/8/3 156/8/3 161/8/3
f 163/4/3 152/4/3 151/4/3
f 164/4/3 152/4/3 163/4/3
f 165/4/3 163/4/3 162/4/3
f 166/4/3 163/4/3 165/4/3
f 175/1/3 168/1/3 167/1/3
f 176/6/3 169/6/3 168/6/3
f 176/1/3 168/1/3 175/1/3
f 177/6/3 169/6/3 176/6/3
f 178/1/3 171/1/3 170/1/3
f 179/4/3 172/4/3 171/4/3
f 179/1/3 171/1/3 178/1/3
f 180/4/3 172/4/3 179/4/3
f 181/9/3 174/9/3 173/9/3
f 182/7/3 175/7/3 174/7/3
f 182/9/3 174/9/3 181/9/3
f 183/7/3 175/7/3 182/7/3
f 189/1/3 185/1/3 184/1/3
f 190/1/3 185/1/3 189/1/3
f 191/9/3 187/9/3 186/9/3
f 192/7/3 188/7/3 187/7/3
f 192/9/3 187/9/3 191/9/3
f 193/7/3 188/7/3 192/7/3
f 199/1/3 194/1/3 193/1/3
f 200/6/3 195/6/3 194/6/3
f 200/1/3 194/1/3 199/1/3
f 201/6/3 195/6/3 200/6/3
f 202/1/3 197/1/3 196/1/3
f 203/4/3 198/4/3 197/4/3
f 203/1/3 197/1/3 202/1/3
f 204/4/3 198/4/3 203/4/3
f 209/3/3 206/3/3 205/3/3
f 210/3/3 206/3/3 209/3/3
f 211/2/3 208/2/3 207/2/3
f 212/2/3 208/2/3 211/2/3
f 217/4/3 214/4/3 213/4/3
f 218/4/3 214/4/3 217/4/3
f 219/3/3 216/3/3 215/3/3
f 220/3/3 216/3/3 219/3/3
f 225/3/3 222/3/3 221/3/3
f 226/3/3 222/3/3 225/3/3
f 227/2/3 224/2/3 223/2/3
f 228/2/3 224/2/3 227/2/3
f 231/4/3 230/4/3 229/4/3
f 232/4/3 230/4/3 231/4/3
f 233/9/4 234/9/4 235/9/4
f 235/9/4 234/9/4 236/9/4
f 237/1/4 238/1/4 241/1/4
f 241/1/4 238/1/4 242/1/4
f 239/9/4 240/9/4 243/9/4
f 243/9/4 240/9/4 244/9/4
f 245/3/4 246/3/4 249/3/4
f 249/3/4 246/3/4 250/3/4
f 246/2/4 247/2/4 251/2/4
f 250/3/4 246/3/4 251/3/4
f 247/4/4 248/4/4 252/4/4
f 251/2/4 247/2/4 252/2/4
f 252/4/4 248/4/4 253/4/4
f 253/4/4 248/4/4 254/4/4
f 249/2/4 250/2/4 257/2/4
f 250/3/4 251/3/4 258/3/4
f 257/2/4 250/2/4 258/2/4
f 252/4/4 253/4/4 259/4/4
f 259/4/4 253/4/4 260/4/4
f 255/4/4 256/4/4 261/4/4
f 254/4/4 255/4/4 261/4/4
f 261/4/4 256/4/4 262/4/4
f 257/3/4 258/3/4 263/3/4
f 258/3/4 251/3/4 264/3/4
f 263/3/4 258/3/4 264/3/4
f 263/2/4 264/2/4 267/2/4
f 264/3/4 251/3/4 268/3/4
f 267/2/4 264/2/4 268/2/4
f 268/3/4 251/3/4 269/3/4
f 265/4/4 266/4/4 270/4/4
f 270/4/4 266/4/4 271/4/4
f 254/4/4 261/4/4 272/4/4
f 272/4/4 261/4/4 273/4/4
f 268/3/4 269/3/4 274/3/4
f 267/3/4 268/3/4 274/3/4
f 269/2/4 270/2/4 275/2/4
f 274/3/4 269/3/4 275/3/4
f 270/4/4 271/4/4 276/4/4
f 275/2/4 270/2/4 276/2/4
f 271/4/4 272/4/4 276/4/4
f 276/4/4 272/4/4 277/4/4
f 278/4/4 279/4/4 281/4/4
f 281/4/4 279/4/4 282/4/4
f 280/4/4 281/4/4 284/4/4
f 283/4/4 284/4/4 285/4/4
f 284/4/4 281/4/4 286/4/4
f 285/4/4 284/4/4 286/4/4
f 286/4/4 281/4/4 287/4/4
f 287/4/4 281/4/4 288/4/4
f 293/9/5 290/9/5 289/9/5
f 294/9/5 290/9/5 293/9/5
f 295/9/5 292/9/5 291/9/5
f 296/9/5 292/9/5 295/9/5
f 303/3/5 298/3/5 297/3/5
f 304/2/5 299/2/5 298/2/5
f 304/3/5 298/3/5 303/3/5
f 305/3/5 300/3/5 299/3/5
f 305/2/5 299/2/5 304/2/5
f 306/2/5 301/2/5 300/2/5
f 306/3/5 300/3/5 305/3/5
f 307/3/5 302/3/5 301/3/5
f 307/2/5 301/2/5 306/2/5
f 308/3/5 302/3/5 307/3/5
f 312/7/5 310/7/5 309/7/5
f 313/7/5 310/7/5 312/7/5
f 314/7/5 310/7/5 313/7/5
f 315/7/5 310/7/5 314/7/5
f 317/1/5 312/1/5 311/1/5
f 318/1/5 312/1/5 317/1/5
f 319/5/5 314/5/5 313/5/5
f 320/5/5 314/5/5 319/5/5
f 321/1/5 316/1/5 315/1/5
f 322/1/5 316/1/5 321/1/5
f 326/1/5 324/1/5 323/1/5
f 327/1/5 324/1/5 326/1/5
f 328/1/5 324/1/5 327/1/5
f 329/1/5 324/1/5 328/1/5
f 331/1/5 326/1/5 325/1/5
f 331/1/5 327/1/5 326/1/5
f 332/1/5 327/1/5 331/1/5
f 333/1/5 327/1/5 332/1/5
f 334/1/5 330/1/5 329/1/5
f 334/1/5 329/1/5 328/1/5
f 335/1/5 330/1/5 334/1/5
f 336/1/5 330/1/5 335/1/5
f 337/4/5 333/4/5 332/4/5
f 337/4/5 335/4/5 334/4/5
f 337/4/5 334/4/5 333/4/5
f 338/4/5 335/4/5 337/4/5
f 339/4/5 335/4/5 338/4/5
f 340/4/5 335/4/5 339/4/5
f 341/4/5 339/4/5 338/4/5
f 342/4/5 339/4/5 341/4/5
f 347/4/5 344/4/5 343/4/5
f 348/4/5 344/4/5 347/4/5
f 349/4/5 346/4/5 345/4/5
f 350/4/5 346/4/5 349/4/5
f 354/4/5 352/4/5 351/4/5
f 355/4/5 352/4/5 354/4/5
f 356/4/5 352/4/5 355/4/5
f 357/4/5 352/4/5 356/4/5
f 359/4/5 354/4/5 353/4/5
f 360/4/5 354/4/5 359/4/5
f 361/4/5 358/4/5 357/4/5
f 362/4/5 358/4/5 361/4/5
f 365/4/5 364/4/5 363/4/5
f 366/4/5 364/4/5 365/4/5
f 367/6/6 368/6/6 370/6/6
f 370/6/6 368/6/6 371/6/6
f 371/6/6 368/6/6 372/6/6
f 372/6/6 368/6/6 373/6/6
f 369/6/6 370/6/6 375/6/6
f 370/5/6 371/5/6 376/5/6
f 375/6/6 370/6/6 376/6/6
f 376/5/6 371/5/6 377/5/6
f 372/5/6 373/5/6 378/5/6
f 373/6/6 374/6/6 379/6/6
f 378/5/6 373/5/6 379/5/6
f 379/6/6 374/6/6 380/6/6
f 377/3/6 378/3/6 381/3/6
f 376/3/6 377/3/6 381/3/6
f 378/3/6 379/3/6 381/3/6
f 381/3/6 379/3/6 382/3/6
f 383/4/6 384/4/6 386/4/6
f 386/4/6 384/4/6 387/4/6
f 385/4/6 386/4/6 389/4/6
f 389/4/6 386/4/6 390/4/6
f 387/4/6 388/4/6 391/4/6
f 391/4/6 388/4/6 392/4/6
f 390/4/6 391/4/6 393/4/6
f 393/4/6 391/4/6 394/4/6
f 395/4/6 396/4/6 397/4/6
f 397/4/6 396/4/6 398/4/6
f 398/4/6 396/4/6 401/4/6
f 401/4/6 396/4/6 402/4/6
f 399/4/6 400/4/6 403/4/6
f 403/4/6 400/4/6 404/4/6
f 405/4/6 406/4/6 407/4/6
f 407/4/6 406/4/6 408/4/6
